<svg version="1.1" viewBox="0.0 0.0 960.0 720.0" fill="none" stroke="none" stroke-linecap="square" stroke-miterlimit="10" xmlns:xlink="http://www.w3.org/1999/xlink" xmlns="http://www.w3.org/2000/svg"><clipPath id="p.0"><path d="m0 0l960.0 0l0 720.0l-960.0 0l0 -720.0z" clip-rule="nonzero"/></clipPath><g clip-path="url(#p.0)"><path fill="#000000" fill-opacity="0.0" d="m0 0l960.0 0l0 720.0l-960.0 0z" fill-rule="evenodd"/><path fill="#555555" d="m418.7244 280.20996l0 0c0 -33.841568 27.434021 -61.275574 61.275604 -61.275574l0 0c16.251312 0 31.836975 6.4557953 43.32837 17.947205c11.491394 11.491394 17.947205 27.077087 17.947205 43.32837l0 0c0 33.841583 -27.434021 61.275604 -61.275574 61.275604l0 0c-33.841583 0 -61.275604 -27.434021 -61.275604 -61.275604z" fill-rule="evenodd"/><path fill="#555555" d="m412.34647 501.0656l33.82675 -174.89764l67.653564 0l33.826782 174.89764z" fill-rule="evenodd"/><path fill="#000000" fill-opacity="0.0" d="m227.71654 360.0l0 0c0 -133.6964 112.95116 -242.07874 252.28346 -242.07874l0 0c66.90973 0 131.07904 25.504662 178.39136 70.90322c47.312317 45.398575 73.89209 106.972244 73.89209 171.17552l0 0c0 133.69641 -112.95111 242.07874 -252.28345 242.07874l0 0c-139.3323 0 -252.28346 -108.382324 -252.28346 -242.07874z" fill-rule="evenodd"/><path stroke="#555555" stroke-width="12.0" stroke-linejoin="round" stroke-linecap="butt" d="m227.71654 360.0l0 0c0 -133.6964 112.95116 -242.07874 252.28346 -242.07874l0 0c66.90973 0 131.07904 25.504662 178.39136 70.90322c47.312317 45.398575 73.89209 106.972244 73.89209 171.17552l0 0c0 133.69641 -112.95111 242.07874 -252.28345 242.07874l0 0c-139.3323 0 -252.28346 -108.382324 -252.28346 -242.07874z" fill-rule="evenodd"/></g></svg>