<svg xmlns="http://www.w3.org/2000/svg" version="1.1" xmlns:xlink="http://www.w3.org/1999/xlink" xmlns:svgjs="http://svgjs.com/svgjs" width="1000" height="1000"><rect width="1000" height="1000" rx="200" ry="200" fill="#ffffff"></rect><g transform="matrix(10,0,0,10,0,6.107795476913452)"><svg xmlns="http://www.w3.org/2000/svg" version="1.1" xmlns:xlink="http://www.w3.org/1999/xlink" xmlns:svgjs="http://svgjs.com/svgjs" width="100" height="100"><svg version="1.1" viewBox="0.0 0.0 100.0 100.0" fill="none" stroke="none" stroke-linecap="square" stroke-miterlimit="10" xmlns:xlink="http://www.w3.org/1999/xlink" xmlns="http://www.w3.org/2000/svg"><clipPath id="p.0"><path d="m0 0l100.0 0l0 100.0l-100.0 0l0 -100.0z" clip-rule="nonzero"></path></clipPath><g clip-path="url(#p.0)"><path fill="#000000" fill-opacity="0.0" d="m0 0l100.0 0l0 100.0l-100.0 0z" fill-rule="evenodd"></path><path fill="#000000" fill-opacity="0.0" d="m15.102363 -1.35729l80.97638 0l0 92.09449l-80.97638 0z" fill-rule="evenodd"></path><path fill="#555555" d="m37.06143 45.414585q0 3.78125 1.5625 6.84375q1.578125 3.046875 4.34375 4.84375q2.765625 1.78125 6.390625 1.78125q3.625 0 6.40625 -1.78125q2.78125 -1.796875 4.328125 -4.84375q1.5625 -3.0625 1.5625 -6.84375q0 -3.78125 -1.5625 -6.828125q-1.546875 -3.046875 -4.328125 -4.84375q-2.78125 -1.7968769 -6.40625 -1.7968769q-3.625 0 -6.390625 1.7968769q-2.765625 1.796875 -4.34375 4.84375q-1.5625 3.046875 -1.5625 6.828125zm-7.796877 0q0 -4.328125 1.515625 -8.0625q1.5156269 -3.734375 4.234377 -6.515627q2.734375 -2.796875 6.40625 -4.34375q3.671875 -1.5625 7.9375 -1.5625q4.328125 0 7.984375 1.5625q3.65625 1.546875 6.375 4.34375q2.71875 2.781252 4.21875 6.515627q1.5 3.734375 1.5 8.0625q0 4.34375 -1.484375 8.078125q-1.46875 3.734375 -4.171875 6.546875q-2.6875 2.796875 -6.359375 4.359371q-3.65625 1.5625 -8.0625 1.5625q-4.46875 0 -8.140625 -1.5625q-3.671875 -1.5624962 -6.359375 -4.359371q-2.6875 -2.8125 -4.140627 -6.546875q-1.453125 -3.734375 -1.453125 -8.078125z" fill-rule="nonzero"></path><path fill="#555555" d="m75.70952 65.24271l0 -3.9999962l4.0 0l0 3.9999962l-4.0 0z" fill-rule="nonzero"></path><path fill="#000000" fill-opacity="0.0" d="m77.59836 15.760245l0 37.288372" fill-rule="evenodd"></path><path stroke="#555555" stroke-width="4.0" stroke-linejoin="round" stroke-linecap="butt" d="m77.59836 15.760245l0 37.288372" fill-rule="evenodd"></path><path fill="#000000" fill-opacity="0.0" d="m79.489716 16.544504l-53.616493 0.36114693" fill-rule="evenodd"></path><path stroke="#555555" stroke-width="4.0" stroke-linejoin="round" stroke-linecap="butt" d="m79.489716 16.544504l-53.616493 0.36114693" fill-rule="evenodd"></path><path fill="#000000" fill-opacity="0.0" d="m20.952965 19.320013l-0.09229851 53.049744" fill-rule="evenodd"></path><path stroke="#555555" stroke-width="4.0" stroke-linejoin="round" stroke-linecap="butt" d="m20.952965 19.320013l-0.09229851 53.049744" fill-rule="evenodd"></path><path fill="#000000" fill-opacity="0.0" d="m75.08086 71.82396l-56.117924 -0.44269562" fill-rule="evenodd"></path><path stroke="#555555" stroke-width="4.0" stroke-linejoin="round" stroke-linecap="butt" d="m75.08086 71.82396l-56.117924 -0.44269562" fill-rule="evenodd"></path></g></svg></svg></g></svg>