<svg version="1.1" viewBox="0.0 0.0 294.0 110.0" fill="none" stroke="none" stroke-linecap="square" stroke-miterlimit="10" xmlns:xlink="http://www.w3.org/1999/xlink" xmlns="http://www.w3.org/2000/svg"><clipPath id="p.0"><path d="m0 0l294.0 0l0 110.0l-294.0 0l0 -110.0z" clip-rule="nonzero"/></clipPath><g clip-path="url(#p.0)"><path fill="#000000" fill-opacity="0.0" d="m0 0l294.0 0l0 110.0l-294.0 0z" fill-rule="evenodd"/><path fill="#000000" fill-opacity="0.0" d="m-8.0 0.6614173l300.063 0l0 95.338585l-300.063 0z" fill-rule="evenodd"/><path fill="#555555" d="m38.76184 49.118298q0 3.53125 1.453125 6.40625q1.453125 2.859375 4.03125 4.5625q2.59375 1.6875 6.015625 1.6875q3.40625 0 5.984375 -1.6875q2.59375 -1.703125 4.046875 -4.5625q1.453125 -2.875 1.453125 -6.40625q0 -3.546875 -1.453125 -6.390625q-1.453125 -2.859375 -4.046875 -4.5625q-2.578125 -1.703125 -5.984375 -1.703125q-3.421875 0 -6.015625 1.703125q-2.578125 1.703125 -4.03125 4.5625q-1.453125 2.84375 -1.453125 6.390625zm-9.75 0q0 -4.515625 1.59375 -8.40625q1.609375 -3.90625 4.484375 -6.8125q2.890625 -2.921877 6.765625 -4.546877q3.890625 -1.640625 8.40625 -1.640625q4.5625 0 8.4375 1.640625q3.875 1.625 6.734375 4.546877q2.859375 2.90625 4.4375 6.8125q1.59375 3.890625 1.59375 8.40625q0 4.53125 -1.546875 8.4375q-1.53125 3.90625 -4.375 6.843746q-2.84375 2.921875 -6.734375 4.546875q-3.890625 1.625 -8.546875 1.625q-4.765625 0 -8.671875 -1.625q-3.890625 -1.625 -6.71875 -4.546875q-2.8125 -2.9374962 -4.34375 -6.843746q-1.515625 -3.90625 -1.515625 -8.4375zm56.55356 20.703121l-9.53125 0l0 -25.718746l9.53125 0l0 3.984375l-0.15625 0q0.25 -0.734375 1.21875 -1.84375q0.96875 -1.109375 2.71875 -2.0q1.765625 -0.890625 4.296875 -0.890625q1.78125 0 3.28125 0.546875q1.515625 0.546875 2.203125 1.046875l-3.703125 7.734375q-0.4375 -0.53125 -1.546875 -1.109375q-1.109375 -0.578125 -2.765625 -0.578125q-1.921875 0 -3.15625 0.96875q-1.234375 0.96875 -1.8125 2.359375q-0.578125 1.375 -0.578125 2.59375l0 12.906246zm26.46643 0.75q-3.71875 0 -6.484375 -1.828125q-2.75 -1.828125 -4.28125 -4.906246q-1.515625 -3.09375 -1.515625 -6.859375q0 -3.765625 1.515625 -6.84375q1.53125 -3.09375 4.28125 -4.9375q2.765625 -1.84375 6.484375 -1.84375q2.484375 0 4.390625 0.765625q1.90625 0.765625 3.09375 1.8125q1.203125 1.046875 1.453125 1.921875l0 -21.140627l9.515625 0l0 43.109375l-9.421875 0l0 -4.171875q-0.59375 1.171875 -1.953125 2.3125q-1.34375 1.140625 -3.15625 1.875q-1.8125 0.734375 -3.921875 0.734375zm2.921875 -7.484371q1.71875 0 3.078125 -0.78125q1.359375 -0.78125 2.140625 -2.171875q0.796875 -1.40625 0.796875 -3.15625q0 -1.75 -0.796875 -3.140625q-0.78125 -1.40625 -2.140625 -2.203125q-1.359375 -0.796875 -3.078125 -0.796875q-1.671875 0 -3.0 0.796875q-1.328125 0.796875 -2.09375 2.203125q-0.765625 1.390625 -0.765625 3.140625q0 1.75 0.765625 3.15625q0.765625 1.390625 2.09375 2.171875q1.328125 0.78125 3.0 0.78125zm28.634232 -4.109375q0.09375 1.375 0.875 2.453125q0.78125 1.0625 2.171875 1.671875q1.390625 0.609375 3.3125 0.609375q1.8125 0 3.265625 -0.375q1.453125 -0.375 2.53125 -0.9375q1.09375 -0.5625 1.6875 -1.15625l3.6875 5.890621q-0.78125 0.84375 -2.203125 1.640625q-1.421875 0.796875 -3.75 1.296875q-2.3125 0.5 -5.84375 0.5q-4.265625 0 -7.59375 -1.59375q-3.3125 -1.59375 -5.234375 -4.6875q-1.90625 -3.1093712 -1.90625 -7.593746q0 -3.765625 1.640625 -6.78125q1.65625 -3.03125 4.78125 -4.796875q3.140625 -1.765625 7.546875 -1.765625q4.203125 0 7.28125 1.53125q3.09375 1.53125 4.765625 4.5625q1.6875 3.015625 1.6875 7.53125q0 0.25 -0.015625 1.0q-0.015625 0.75 -0.078125 1.0l-18.609375 0zm9.734375 -4.984375q-0.03125 -1.0 -0.53125 -1.984375q-0.5 -0.984375 -1.5 -1.625q-1.0 -0.640625 -2.578125 -0.640625q-1.5625 0 -2.640625 0.609375q-1.078125 0.609375 -1.640625 1.578125q-0.5625 0.96875 -0.625 2.0625l9.515625 0zm22.593521 15.828121l-9.53125 0l0 -25.718746l9.53125 0l0 3.984375l-0.15625 0q0.25 -0.734375 1.21875 -1.84375q0.96875 -1.109375 2.71875 -2.0q1.765625 -0.890625 4.296875 -0.890625q1.78125 0 3.28125 0.546875q1.515625 0.546875 2.203125 1.046875l-3.703125 7.734375q-0.4375 -0.53125 -1.546875 -1.109375q-1.109375 -0.578125 -2.765625 -0.578125q-1.921875 0 -3.15625 0.96875q-1.234375 0.96875 -1.8125 2.359375q-0.578125 1.375 -0.578125 2.59375l0 12.906246zm25.655762 0l-9.5625 0l0 -43.109375l9.5625 0l0 43.109375zm19.101608 -8.234371l6.96875 -17.484375l9.328125 0l-17.671875 38.749996l-9.515625 0l5.953125 -13.03125l-10.75 -25.718746l9.5 0l6.1875 17.484375zm25.6586 8.984371q-2.3125 0 -3.984375 -1.671875q-1.671875 -1.671875 -1.671875 -4.0q0 -2.3749962 1.671875 -4.046871q1.671875 -1.6875 3.984375 -1.6875q2.3906097 0 4.0468597 1.6875q1.65625 1.671875 1.65625 4.046871q0 2.328125 -1.65625 4.0q-1.65625 1.671875 -4.0468597 1.671875z" fill-rule="nonzero"/><path fill="#000000" fill-opacity="0.0" d="m18.75328 83.70604l0.18897629 -70.74016" fill-rule="evenodd"/><path stroke="#555555" stroke-width="3.0" stroke-linejoin="round" stroke-linecap="butt" d="m18.75328 83.70604l0.18897629 -70.74016" fill-rule="evenodd"/><path fill="#000000" fill-opacity="0.0" d="m17.362206 12.95538l200.0 0" fill-rule="evenodd"/><path stroke="#555555" stroke-width="3.0" stroke-linejoin="round" stroke-linecap="butt" d="m17.362206 12.95538l200.0 0" fill-rule="evenodd"/><path fill="#000000" fill-opacity="0.0" d="m258.87402 21.141733l-0.18899536 70.74016" fill-rule="evenodd"/><path stroke="#555555" stroke-width="3.0" stroke-linejoin="round" stroke-linecap="butt" d="m258.87402 21.141733l-0.18899536 70.74016" fill-rule="evenodd"/><path fill="#000000" fill-opacity="0.0" d="m260.2651 91.89239l-200.00002 0" fill-rule="evenodd"/><path stroke="#555555" stroke-width="3.0" stroke-linejoin="round" stroke-linecap="butt" d="m260.2651 91.89239l-200.00002 0" fill-rule="evenodd"/></g></svg>